<?xml version="1.0" encoding="UTF-8" standalone="no"?>
<!DOCTYPE svg PUBLIC "-//W3C//DTD SVG 1.1//EN" "http://www.w3.org/Graphics/SVG/1.1/DTD/svg11.dtd">
<!-- Created with Vectornator (http://vectornator.io/) -->
<svg height="100%" stroke-miterlimit="10" style="fill-rule:nonzero;clip-rule:evenodd;stroke-linecap:round;stroke-linejoin:round;" version="1.1" viewBox="0 0 549.34 513.45" width="100%" xml:space="preserve" xmlns="http://www.w3.org/2000/svg" xmlns:xlink="http://www.w3.org/1999/xlink">
<defs>
<filter color-interpolation-filters="sRGB" filterUnits="userSpaceOnUse" height="303.944" id="Filter" width="346.913" x="101.214" y="30.4868">
<feDropShadow dx="9.18485e-17" dy="1.5" flood-color="#ffffff" flood-opacity="1" in="SourceGraphic" result="Shadow" stdDeviation="0.5"/>
</filter>
</defs>
<g id="Untitled">
<g filter="url(#Filter)">
<path d="M351.152 238.576L196.785 238.576C169.204 238.576 146.765 215.758 146.765 187.712C146.765 165.345 161.239 145.57 182.151 139.078C188.11 117.027 207.716 101.758 230.36 101.758C239.168 101.758 247.738 104.097 255.312 108.548C266.181 90.5432 285.494 79.4728 306.38 79.4728C339.031 79.4728 365.661 106.174 366.265 139.231C386.92 145.877 401.172 165.517 401.172 187.721C401.172 215.767 378.733 238.585 351.152 238.585L351.152 238.576ZM230.369 107.176C209.67 107.176 191.812 121.452 186.946 141.886C186.715 142.843 185.996 143.602 185.055 143.864C165.653 149.218 152.102 167.25 152.102 187.712C152.102 212.769 172.153 233.158 196.794 233.158L351.161 233.158C375.802 233.158 395.853 212.769 395.853 187.712C395.853 167.25 382.302 149.218 362.9 143.864C361.728 143.538 360.92 142.446 360.937 141.209L360.937 140.775C360.955 140.64 360.955 140.505 360.955 140.369C360.955 109.776 336.474 84.8816 306.389 84.8816C286.516 84.8816 268.197 95.8888 258.589 113.605C258.233 114.264 257.621 114.743 256.901 114.923C256.182 115.104 255.419 114.978 254.797 114.562C247.524 109.722 239.08 107.167 230.369 107.167L230.369 107.176Z" fill="#4d008c" fill-rule="nonzero" opacity="1" stroke="#4d008c" stroke-linecap="round" stroke-linejoin="round" stroke-width="0"/>
<path d="M113.99 234.052C107.632 234.052 102.464 228.797 102.464 222.332C102.464 215.866 107.632 210.611 113.99 210.611C120.348 210.611 125.516 215.866 125.516 222.332C125.516 228.797 120.348 234.052 113.99 234.052ZM113.99 216.029C110.571 216.029 107.792 218.855 107.792 222.332C107.792 225.808 110.571 228.634 113.99 228.634C117.408 228.634 120.188 225.808 120.188 222.332C120.188 218.855 117.408 216.029 113.99 216.029Z" fill="#4d008c" fill-rule="nonzero" opacity="1" stroke="#4d008c" stroke-linecap="round" stroke-linejoin="round" stroke-width="0"/>
<path d="M149.9 123.086C143.542 123.086 138.374 117.831 138.374 111.366C138.374 104.9 143.542 99.6452 149.9 99.6452C156.258 99.6452 161.426 104.9 161.426 111.366C161.426 117.831 156.258 123.086 149.9 123.086ZM149.9 105.063C146.481 105.063 143.702 107.889 143.702 111.366C143.702 114.842 146.481 117.668 149.9 117.668C153.318 117.668 156.098 114.842 156.098 111.366C156.098 107.889 153.318 105.063 149.9 105.063Z" fill="#4d008c" fill-rule="nonzero" opacity="1" stroke="#4d008c" stroke-linecap="round" stroke-linejoin="round" stroke-width="0"/>
<path d="M240.989 79.9695C234.631 79.9695 229.463 74.7142 229.463 68.2489C229.463 61.7837 234.631 56.5284 240.989 56.5284C247.347 56.5284 252.515 61.7837 252.515 68.2489C252.515 74.7142 247.347 79.9695 240.989 79.9695ZM240.989 61.9462C237.57 61.9462 234.791 64.7725 234.791 68.2489C234.791 71.7254 237.57 74.5516 240.989 74.5516C244.408 74.5516 247.187 71.7254 247.187 68.2489C247.187 64.7725 244.408 61.9462 240.989 61.9462Z" fill="#4d008c" fill-rule="nonzero" opacity="1" stroke="#4d008c" stroke-linecap="round" stroke-linejoin="round" stroke-width="0"/>
<path d="M338.8 53.9278C332.442 53.9278 327.274 48.6726 327.274 42.2073C327.274 35.742 332.442 30.4868 338.8 30.4868C345.158 30.4868 350.326 35.742 350.326 42.2073C350.326 48.6726 345.158 53.9278 338.8 53.9278ZM338.8 35.9046C335.381 35.9046 332.602 38.7309 332.602 42.2073C332.602 45.6837 335.381 48.51 338.8 48.51C342.219 48.51 344.998 45.6837 344.998 42.2073C344.998 38.7309 342.219 35.9046 338.8 35.9046Z" fill="#4d008c" fill-rule="nonzero" opacity="1" stroke="#4d008c" stroke-linecap="round" stroke-linejoin="round" stroke-width="0"/>
<path d="M395.054 122.653C388.696 122.653 383.528 117.398 383.528 110.932C383.528 104.467 388.696 99.2117 395.054 99.2117C401.412 99.2117 406.58 104.467 406.58 110.932C406.58 117.398 401.412 122.653 395.054 122.653ZM395.054 104.63C391.635 104.63 388.856 107.456 388.856 110.932C388.856 114.409 391.635 117.235 395.054 117.235C398.472 117.235 401.252 114.409 401.252 110.932C401.252 107.456 398.472 104.63 395.054 104.63Z" fill="#4d008c" fill-rule="nonzero" opacity="1" stroke="#4d008c" stroke-linecap="round" stroke-linejoin="round" stroke-width="0"/>
<path d="M435.35 232.788C428.992 232.788 423.824 227.533 423.824 221.067C423.824 214.602 428.992 209.347 435.35 209.347C441.708 209.347 446.876 214.602 446.876 221.067C446.876 227.533 441.708 232.788 435.35 232.788ZM435.35 214.765C431.932 214.765 429.152 217.591 429.152 221.067C429.152 224.544 431.932 227.37 435.35 227.37C438.769 227.37 441.548 224.544 441.548 221.067C441.548 217.591 438.769 214.765 435.35 214.765Z" fill="#4d008c" fill-rule="nonzero" opacity="1" stroke="#4d008c" stroke-linecap="round" stroke-linejoin="round" stroke-width="0"/>
<path d="M394.666 207.724L396.579 202.668L396.579 202.668L429.324 215.476L429.324 215.476L427.411 220.533L427.411 220.533L394.666 207.724L394.666 207.724Z" fill="#4d008c" fill-rule="nonzero" opacity="1" stroke="#4d008c" stroke-linecap="round" stroke-linejoin="round" stroke-width="0"/>
<path d="M364.316 138.426L386.566 114.947L386.566 114.947L390.403 118.707L390.403 118.707L368.153 142.185L368.153 142.185L364.316 138.426L364.316 138.426Z" fill="#4d008c" fill-rule="nonzero" opacity="1" stroke="#4d008c" stroke-linecap="round" stroke-linejoin="round" stroke-width="0"/>
<path d="M322.13 83.5848L332.204 50.714L332.204 50.714L337.291 52.326L337.291 52.326L327.216 85.1968L327.216 85.1968L322.13 83.5848L322.13 83.5848Z" fill="#4d008c" fill-rule="nonzero" opacity="1" stroke="#4d008c" stroke-linecap="round" stroke-linejoin="round" stroke-width="0"/>
<path d="M241.559 78.4485L246.578 76.6302L246.578 76.6302L258.755 111.386L258.755 111.386L253.736 113.204L253.736 113.204L241.559 78.4485L241.559 78.4485Z" fill="#4d008c" fill-rule="nonzero" opacity="1" stroke="#4d008c" stroke-linecap="round" stroke-linejoin="round" stroke-width="0"/>
<path d="M154.272 120.635L157.564 116.375L157.564 116.375L186.002 139.099L186.002 139.099L182.71 143.359L182.71 143.359L154.272 120.635L154.272 120.635Z" fill="#4d008c" fill-rule="nonzero" opacity="1" stroke="#4d008c" stroke-linecap="round" stroke-linejoin="round" stroke-width="0"/>
<path d="M121.207 215.533L151.009 201.447L151.009 201.447L153.255 206.36L153.255 206.36L123.453 220.446L123.453 220.446L121.207 215.533L121.207 215.533Z" fill="#4d008c" fill-rule="nonzero" opacity="1" stroke="#4d008c" stroke-linecap="round" stroke-linejoin="round" stroke-width="0"/>
<path d="M274.99 236.346L280.318 236.346L280.318 236.346L280.318 270.496L280.318 270.496L274.99 270.496L274.99 270.496L274.99 236.346L274.99 236.346Z" fill="#4d008c" fill-rule="nonzero" opacity="1" stroke="#4d008c" stroke-linecap="round" stroke-linejoin="round" stroke-width="0"/>
<path d="M276.81 307.346C266.545 307.346 258.198 298.858 258.198 288.42C258.198 277.982 266.545 269.494 276.81 269.494C287.075 269.494 295.422 277.982 295.422 288.42C295.422 298.858 287.075 307.346 276.81 307.346ZM276.81 274.902C269.484 274.902 263.526 280.961 263.526 288.411C263.526 295.86 269.484 301.919 276.81 301.919C284.136 301.919 290.094 295.86 290.094 288.411C290.094 280.961 284.136 274.902 276.81 274.902Z" fill="#4d008c" fill-rule="nonzero" opacity="1" stroke="#4d008c" stroke-linecap="round" stroke-linejoin="round" stroke-width="0"/>
<path d="M306.62 331.681C305.838 331.681 305.066 331.338 304.542 330.661L284.393 305.053C283.479 303.888 283.656 302.181 284.811 301.242C285.956 300.312 287.635 300.493 288.558 301.666L308.706 327.275C309.621 328.439 309.443 330.146 308.289 331.085C307.801 331.482 307.215 331.681 306.628 331.681L306.62 331.681Z" fill="#4d008c" fill-rule="nonzero" opacity="1" stroke="#4d008c" stroke-linecap="round" stroke-linejoin="round" stroke-width="0"/>
<g opacity="1">
<path d="M212.565 299.761L207.521 299.761L207.521 296.294L207.432 296.294C206.961 297.377 206.144 298.325 204.972 299.156C203.809 299.978 202.424 300.393 200.834 300.393C199.449 300.393 198.259 300.149 197.274 299.653C196.288 299.156 195.471 298.506 194.84 297.693C194.21 296.881 193.739 295.951 193.446 294.903C193.153 293.856 193.002 292.772 193.002 291.662L193.002 278.162L198.312 278.162L198.312 290.136C198.312 290.768 198.357 291.427 198.446 292.113C198.534 292.799 198.73 293.422 199.023 293.982C199.316 294.542 199.724 294.994 200.239 295.355C200.754 295.716 201.438 295.896 202.3 295.896C203.161 295.896 203.853 295.725 204.493 295.382C205.123 295.039 205.647 294.596 206.038 294.054C206.437 293.513 206.739 292.89 206.944 292.185C207.148 291.481 207.254 290.768 207.254 290.045L207.254 278.162L212.565 278.162C212.565 278.162 212.565 299.761 212.565 299.761Z" fill="#4d008c" fill-rule="nonzero" opacity="1" stroke="#4d008c" stroke-linecap="round" stroke-linejoin="round" stroke-width="0"/>
<path d="M224.33 265.737L224.33 280.907L224.464 280.907C224.73 280.546 225.067 280.176 225.485 279.778C225.893 279.39 226.39 279.029 226.968 278.695C227.545 278.361 228.211 278.09 228.983 277.864C229.747 277.638 230.617 277.53 231.594 277.53C233.095 277.53 234.489 277.819 235.759 278.406C237.028 278.993 238.121 279.797 239.035 280.817C239.95 281.837 240.66 283.038 241.158 284.42C241.655 285.801 241.912 287.282 241.912 288.871C241.912 290.461 241.673 291.96 241.184 293.35C240.696 294.741 240.003 295.96 239.106 296.998C238.209 298.037 237.117 298.858 235.83 299.472C234.542 300.086 233.095 300.393 231.47 300.393C229.969 300.393 228.557 300.059 227.243 299.4C225.929 298.741 224.908 297.784 224.17 296.52L224.082 296.52L224.082 299.761L219.038 299.761L219.038 265.737L224.348 265.737L224.33 265.737ZM236.505 288.871C236.505 288.032 236.38 287.201 236.132 286.37C235.883 285.548 235.501 284.799 235.004 284.14C234.498 283.481 233.867 282.948 233.104 282.542C232.34 282.135 231.434 281.937 230.404 281.937C229.427 281.937 228.557 282.144 227.793 282.569C227.03 282.993 226.373 283.526 225.822 284.185C225.272 284.844 224.863 285.594 224.579 286.433C224.295 287.273 224.162 288.113 224.162 288.953C224.162 289.792 224.304 290.623 224.579 291.454C224.863 292.276 225.272 293.025 225.822 293.684C226.364 294.343 227.021 294.876 227.793 295.282C228.557 295.689 229.427 295.887 230.404 295.887C231.434 295.887 232.34 295.68 233.104 295.255C233.867 294.84 234.507 294.298 235.004 293.639C235.501 292.98 235.883 292.23 236.132 291.391C236.38 290.551 236.505 289.711 236.505 288.871Z" fill="#4d008c" fill-rule="nonzero" opacity="1" stroke="#4d008c" stroke-linecap="round" stroke-linejoin="round" stroke-width="0"/>
<path d="M246.379 270.821C246.379 269.954 246.699 269.196 247.329 268.546C247.96 267.904 248.768 267.579 249.744 267.579C250.721 267.579 251.538 267.886 252.204 268.5C252.87 269.114 253.199 269.891 253.199 270.821C253.199 271.751 252.87 272.528 252.204 273.142C251.538 273.756 250.721 274.063 249.744 274.063C248.768 274.063 247.968 273.738 247.329 273.097C246.699 272.455 246.379 271.697 246.379 270.821ZM247.134 278.153L252.444 278.153L252.444 299.752L247.134 299.752L247.134 278.153Z" fill="#4d008c" fill-rule="nonzero" opacity="1" stroke="#4d008c" stroke-linecap="round" stroke-linejoin="round" stroke-width="0"/>
</g>
<g opacity="1">
<path d="M320.437 300.583L315.393 300.583L315.393 297.115L315.304 297.115C314.833 298.199 314.016 299.147 312.844 299.978C311.681 300.8 310.296 301.215 308.706 301.215C307.321 301.215 306.131 300.971 305.146 300.475C304.16 299.978 303.343 299.328 302.712 298.515C302.082 297.702 301.611 296.772 301.318 295.725C301.025 294.677 300.874 293.594 300.874 292.483L300.874 278.984L306.184 278.984L306.184 290.957C306.184 291.589 306.229 292.248 306.318 292.935C306.406 293.621 306.602 294.244 306.895 294.804C307.188 295.364 307.596 295.815 308.111 296.176C308.626 296.538 309.31 296.718 310.172 296.718C311.033 296.718 311.725 296.547 312.365 296.203C312.995 295.86 313.519 295.418 313.91 294.876C314.309 294.334 314.611 293.711 314.816 293.007C315.02 292.303 315.126 291.589 315.126 290.867L315.126 278.984L320.437 278.984C320.437 278.984 320.437 300.583 320.437 300.583Z" fill="#4d008c" fill-rule="nonzero" opacity="1" stroke="#4d008c" stroke-linecap="round" stroke-linejoin="round" stroke-width="0"/>
<path d="M326.146 271.643C326.146 270.776 326.466 270.017 327.096 269.367C327.727 268.726 328.535 268.401 329.512 268.401C330.489 268.401 331.305 268.708 331.971 269.322C332.637 269.936 332.966 270.713 332.966 271.643C332.966 272.573 332.637 273.349 331.971 273.963C331.305 274.577 330.489 274.884 329.512 274.884C328.535 274.884 327.736 274.559 327.096 273.918C326.466 273.277 326.146 272.519 326.146 271.643ZM326.901 278.975L332.211 278.975L332.211 300.574L326.901 300.574L326.901 278.975Z" fill="#4d008c" fill-rule="nonzero" opacity="1" stroke="#4d008c" stroke-linecap="round" stroke-linejoin="round" stroke-width="0"/>
<path d="M335.612 283.3L335.612 278.975L339.333 278.975L339.333 272.717L344.554 272.717L344.554 278.975L349.864 278.975L349.864 283.3L344.554 283.3L344.554 293.341C344.554 294.298 344.723 295.093 345.06 295.725C345.398 296.357 346.161 296.673 347.342 296.673C347.698 296.673 348.079 296.637 348.497 296.565C348.905 296.492 349.278 296.375 349.607 296.231L349.784 300.466C349.314 300.646 348.754 300.791 348.106 300.89C347.458 300.998 346.836 301.043 346.25 301.043C344.829 301.043 343.684 300.845 342.796 300.438C341.908 300.032 341.206 299.481 340.691 298.777C340.176 298.073 339.821 297.26 339.626 296.348C339.43 295.436 339.342 294.452 339.342 293.404L339.342 283.318L335.621 283.318L335.612 283.3Z" fill="#4d008c" fill-rule="nonzero" opacity="1" stroke="#4d008c" stroke-linecap="round" stroke-linejoin="round" stroke-width="0"/>
<path d="M350.53 278.984L356.418 278.984L362.349 294.696L362.438 294.696L367.704 278.984L373.236 278.984L363.193 305.224C362.811 306.217 362.394 307.093 361.95 307.861C361.506 308.628 360.973 309.269 360.36 309.793C359.739 310.317 359.01 310.714 358.167 310.985C357.323 311.256 356.311 311.391 355.139 311.391C354.695 311.391 354.242 311.364 353.789 311.319C353.327 311.274 352.866 311.193 352.395 311.075L352.839 306.398C353.194 306.515 353.541 306.597 353.878 306.642C354.215 306.687 354.535 306.705 354.828 306.705C355.388 306.705 355.858 306.642 356.24 306.506C356.622 306.371 356.95 306.163 357.217 305.874C357.483 305.585 357.714 305.233 357.927 304.818C358.131 304.393 358.353 303.906 358.593 303.328L359.659 300.583L350.539 278.984L350.53 278.984Z" fill="#4d008c" fill-rule="nonzero" opacity="1" stroke="#4d008c" stroke-linecap="round" stroke-linejoin="round" stroke-width="0"/>
</g>
</g>
</g>
</svg>
