<?xml version="1.0" encoding="UTF-8"?><svg id="Layer_1" xmlns="http://www.w3.org/2000/svg" viewBox="0 0 549.34 513.45"><defs><style>.cls-1{fill:#4d008c;}</style></defs><path class="cls-1" d="M360.8,320.39H186.96c-31.06,0-56.33-25.27-56.33-56.33,0-24.77,16.3-46.67,39.85-53.86,6.71-24.42,28.79-41.33,54.29-41.33,9.92,0,19.57,2.59,28.1,7.52,12.24-19.94,33.99-32.2,57.51-32.2,36.77,0,66.76,29.57,67.44,66.18,23.26,7.36,39.31,29.11,39.31,53.7,0,31.06-25.27,56.33-56.33,56.33ZM224.78,174.87c-23.31,0-43.42,15.81-48.9,38.44-.26,1.06-1.07,1.9-2.13,2.19-21.85,5.93-37.11,25.9-37.11,48.56,0,27.75,22.58,50.33,50.33,50.33h173.84c27.75,0,50.33-22.58,50.33-50.33,0-22.66-15.26-42.63-37.11-48.56-1.32-.36-2.23-1.57-2.21-2.94v-.48c.02-.15,.02-.3,.02-.45,0-33.88-27.57-61.45-61.45-61.45-22.38,0-43.01,12.19-53.83,31.81-.4,.73-1.09,1.26-1.9,1.46-.81,.2-1.67,.06-2.37-.4-8.19-5.36-17.7-8.19-27.51-8.19Z"/><path class="cls-1" d="M93.72,315.38c-7.16,0-12.98-5.82-12.98-12.98s5.82-12.98,12.98-12.98,12.98,5.82,12.98,12.98-5.82,12.98-12.98,12.98Zm0-19.96c-3.85,0-6.98,3.13-6.98,6.98s3.13,6.98,6.98,6.98,6.98-3.13,6.98-6.98-3.13-6.98-6.98-6.98Z"/><path class="cls-1" d="M134.16,192.49c-7.16,0-12.98-5.82-12.98-12.98s5.82-12.98,12.98-12.98,12.98,5.82,12.98,12.98-5.82,12.98-12.98,12.98Zm0-19.96c-3.85,0-6.98,3.13-6.98,6.98s3.13,6.98,6.98,6.98,6.98-3.13,6.98-6.98-3.13-6.98-6.98-6.98Z"/><path class="cls-1" d="M236.74,144.74c-7.16,0-12.98-5.82-12.98-12.98s5.82-12.98,12.98-12.98,12.98,5.82,12.98,12.98-5.82,12.98-12.98,12.98Zm0-19.96c-3.85,0-6.98,3.13-6.98,6.98s3.13,6.98,6.98,6.98,6.98-3.13,6.98-6.98-3.13-6.98-6.98-6.98Z"/><path class="cls-1" d="M346.89,115.9c-7.16,0-12.98-5.82-12.98-12.98s5.82-12.98,12.98-12.98,12.98,5.82,12.98,12.98-5.82,12.98-12.98,12.98Zm0-19.96c-3.85,0-6.98,3.13-6.98,6.98s3.13,6.98,6.98,6.98,6.98-3.13,6.98-6.98-3.13-6.98-6.98-6.98Z"/><path class="cls-1" d="M410.24,192.01c-7.16,0-12.98-5.82-12.98-12.98s5.82-12.98,12.98-12.98,12.98,5.82,12.98,12.98-5.82,12.98-12.98,12.98Zm0-19.96c-3.85,0-6.98,3.13-6.98,6.98s3.13,6.98,6.98,6.98,6.98-3.13,6.98-6.98-3.13-6.98-6.98-6.98Z"/><path class="cls-1" d="M455.62,313.98c-7.16,0-12.98-5.82-12.98-12.98s5.82-12.98,12.98-12.98,12.98,5.82,12.98,12.98-5.82,12.98-12.98,12.98Zm0-19.96c-3.85,0-6.98,3.13-6.98,6.98s3.13,6.98,6.98,6.98,6.98-3.13,6.98-6.98-3.13-6.98-6.98-6.98Z"/><rect class="cls-1" x="426.31" y="270.74" width="6" height="39.51" transform="translate(4.06 586.91) rotate(-68.96)"/><rect class="cls-1" x="372.25" y="195.55" width="36.11" height="6" transform="translate(-23.49 341.83) rotate(-46.06)"/><rect class="cls-1" x="317.58" y="128.42" width="38.13" height="6" transform="translate(111.02 413.73) rotate(-72.69)"/><rect class="cls-1" x="244.07" y="140.87" width="6" height="40.86" transform="translate(-39.81 92.27) rotate(-19.61)"/><rect class="cls-1" x="153.95" y="179.66" width="6" height="40.73" transform="translate(-97.3 199.82) rotate(-51.84)"/><rect class="cls-1" x="101.39" y="286.79" width="37.01" height="6" transform="translate(-110.98 77.54) rotate(-24.93)"/><rect class="cls-1" x="275.03" y="317.92" width="6" height="37.82"/><path class="cls-1" d="M277.08,396.55c-11.56,0-20.96-9.4-20.96-20.96s9.4-20.96,20.96-20.96,20.96,9.4,20.96,20.96-9.4,20.96-20.96,20.96Zm0-35.93c-8.25,0-14.96,6.71-14.96,14.96s6.71,14.96,14.96,14.96,14.96-6.71,14.96-14.96-6.71-14.96-14.96-14.96Z"/><path class="cls-1" d="M310.65,423.5c-.88,0-1.75-.38-2.34-1.13l-22.69-28.36c-1.03-1.29-.83-3.18,.47-4.22,1.29-1.03,3.18-.83,4.22,.47l22.69,28.36c1.03,1.29,.83,3.18-.47,4.22-.55,.44-1.21,.66-1.87,.66Z"/><g><path class="cls-1" d="M204.73,388.15h-5.68v-3.84h-.1c-.53,1.2-1.45,2.25-2.77,3.17-1.31,.91-2.87,1.37-4.66,1.37-1.56,0-2.9-.27-4.01-.82-1.11-.55-2.03-1.27-2.74-2.17-.71-.9-1.24-1.93-1.57-3.09-.33-1.16-.5-2.36-.5-3.59v-14.95h5.98v13.26c0,.7,.05,1.43,.15,2.19,.1,.76,.32,1.45,.65,2.07,.33,.62,.79,1.12,1.37,1.52,.58,.4,1.35,.6,2.32,.6s1.75-.19,2.47-.57c.71-.38,1.3-.87,1.74-1.47,.45-.6,.79-1.29,1.02-2.07,.23-.78,.35-1.57,.35-2.37v-13.16h5.98v23.92Z"/><path class="cls-1" d="M217.98,350.47v16.8h.15c.3-.4,.68-.81,1.15-1.25,.46-.43,1.02-.83,1.67-1.2,.65-.37,1.4-.67,2.27-.92,.86-.25,1.84-.37,2.94-.37,1.69,0,3.26,.32,4.69,.97,1.43,.65,2.66,1.54,3.69,2.67,1.03,1.13,1.83,2.46,2.39,3.99,.56,1.53,.85,3.17,.85,4.93s-.27,3.42-.82,4.96-1.33,2.89-2.34,4.04c-1.01,1.15-2.24,2.06-3.69,2.74-1.45,.68-3.08,1.02-4.91,1.02-1.69,0-3.28-.37-4.76-1.1-1.48-.73-2.63-1.79-3.46-3.19h-.1v3.59h-5.68v-37.68h5.98Zm13.71,25.62c0-.93-.14-1.85-.42-2.77-.28-.91-.71-1.74-1.27-2.47-.57-.73-1.28-1.32-2.14-1.77-.86-.45-1.88-.67-3.04-.67-1.1,0-2.08,.23-2.94,.7-.86,.47-1.6,1.06-2.22,1.79-.62,.73-1.08,1.56-1.4,2.49-.32,.93-.47,1.86-.47,2.79s.16,1.85,.47,2.77c.32,.91,.78,1.74,1.4,2.47,.61,.73,1.35,1.32,2.22,1.77,.86,.45,1.84,.67,2.94,.67,1.16,0,2.18-.23,3.04-.7,.86-.46,1.58-1.06,2.14-1.79,.56-.73,.99-1.56,1.27-2.49,.28-.93,.42-1.86,.42-2.79Z"/><path class="cls-1" d="M242.81,356.1c0-.96,.36-1.8,1.07-2.52,.71-.71,1.62-1.07,2.72-1.07s2.02,.34,2.77,1.02,1.12,1.54,1.12,2.57-.37,1.89-1.12,2.57c-.75,.68-1.67,1.02-2.77,1.02s-2-.36-2.72-1.07c-.71-.71-1.07-1.55-1.07-2.52Zm.85,8.12h5.98v23.92h-5.98v-23.92Z"/></g><g><path class="cls-1" d="M326.21,389.06h-5.68v-3.84h-.1c-.53,1.2-1.45,2.25-2.77,3.17-1.31,.91-2.87,1.37-4.66,1.37-1.56,0-2.9-.27-4.01-.82-1.11-.55-2.03-1.27-2.74-2.17-.71-.9-1.24-1.93-1.57-3.09-.33-1.16-.5-2.36-.5-3.59v-14.95h5.98v13.26c0,.7,.05,1.43,.15,2.19,.1,.76,.32,1.45,.65,2.07,.33,.62,.79,1.12,1.37,1.52,.58,.4,1.35,.6,2.32,.6s1.75-.19,2.47-.57c.71-.38,1.3-.87,1.74-1.47,.45-.6,.79-1.29,1.02-2.07,.23-.78,.35-1.57,.35-2.37v-13.16h5.98v23.92Z"/><path class="cls-1" d="M332.64,357.01c0-.96,.36-1.8,1.07-2.52,.71-.71,1.62-1.07,2.72-1.07s2.02,.34,2.77,1.02,1.12,1.54,1.12,2.57-.37,1.89-1.12,2.57c-.75,.68-1.67,1.02-2.77,1.02s-2-.36-2.72-1.07c-.71-.71-1.07-1.55-1.07-2.52Zm.85,8.12h5.98v23.92h-5.98v-23.92Z"/><path class="cls-1" d="M343.3,369.92v-4.79h4.19v-6.93h5.88v6.93h5.98v4.79h-5.98v11.12c0,1.06,.19,1.94,.57,2.64,.38,.7,1.24,1.05,2.57,1.05,.4,0,.83-.04,1.3-.12,.46-.08,.88-.21,1.25-.37l.2,4.69c-.53,.2-1.16,.36-1.89,.47-.73,.12-1.43,.17-2.09,.17-1.6,0-2.89-.22-3.89-.67-1-.45-1.79-1.06-2.37-1.84-.58-.78-.98-1.68-1.2-2.69-.22-1.01-.32-2.1-.32-3.26v-11.17h-4.19Z"/><path class="cls-1" d="M360.1,365.14h6.63l6.68,17.4h.1l5.93-17.4h6.23l-11.31,29.06c-.43,1.1-.9,2.07-1.4,2.92s-1.1,1.56-1.79,2.14c-.7,.58-1.52,1.02-2.47,1.32-.95,.3-2.09,.45-3.41,.45-.5,0-1.01-.03-1.52-.08-.52-.05-1.04-.14-1.57-.27l.5-5.18c.4,.13,.79,.22,1.17,.27,.38,.05,.74,.07,1.07,.07,.63,0,1.16-.07,1.59-.22,.43-.15,.8-.38,1.1-.7,.3-.32,.56-.71,.8-1.17,.23-.47,.48-1.01,.75-1.65l1.2-3.04-10.27-23.92Z"/></g></svg>